<svg xmlns="http://www.w3.org/2000/svg" width="400" height="225" viewBox="0 0 400 225">
  <!-- 16:9 aspect ratio -->
  <defs>
    <linearGradient id="cityGradient" x1="0%" y1="0%" x2="0%" y2="100%">
      <stop offset="0%" style="stop-color:#2c3e50;stop-opacity:1" />
      <stop offset="100%" style="stop-color:#000000;stop-opacity:1" />
    </linearGradient>
  </defs>
  
  <rect width="400" height="225" fill="url(#cityGradient)" />
  
  <!-- City skyline -->
  <rect x="20" y="100" width="30" height="125" fill="#1a1a1a" />
  <rect x="25" y="90" width="20" height="10" fill="#1a1a1a" />
  
  <rect x="55" y="80" width="40" height="145" fill="#1a1a1a" />
  <rect x="62" y="70" width="26" height="10" fill="#1a1a1a" />
  
  <rect x="100" y="120" width="35" height="105" fill="#1a1a1a" />
  
  <rect x="140" y="70" width="45" height="155" fill="#1a1a1a" />
  <rect x="145" y="60" width="35" height="10" fill="#1a1a1a" />
  
  <rect x="190" y="90" width="30" height="135" fill="#1a1a1a" />
  
  <rect x="225" y="60" width="50" height="165" fill="#1a1a1a" />
  <rect x="235" y="45" width="30" height="15" fill="#1a1a1a" />
  
  <rect x="280" y="100" width="40" height="125" fill="#1a1a1a" />
  
  <rect x="325" y="85" width="35" height="140" fill="#1a1a1a" />
  <rect x="330" y="75" width="25" height="10" fill="#1a1a1a" />
  
  <rect x="365" y="115" width="25" height="110" fill="#1a1a1a" />
  
  <!-- Windows in buildings - randomly placed -->
  <!-- Building 1 -->
  <rect x="25" y="110" width="5" height="8" fill="#ffcc00" opacity="0.8" />
  <rect x="35" y="110" width="5" height="8" fill="#ffcc00" opacity="0.8" />
  <rect x="25" y="125" width="5" height="8" fill="#ffcc00" opacity="0.7" />
  <rect x="35" y="140" width="5" height="8" fill="#ffcc00" opacity="0.6" />
  <rect x="25" y="155" width="5" height="8" fill="#ffcc00" opacity="0.7" />
  <rect x="35" y="170" width="5" height="8" fill="#ffcc00" opacity="0.8" />
  <rect x="25" y="185" width="5" height="8" fill="#ffcc00" opacity="0.6" />
  <rect x="35" y="200" width="5" height="8" fill="#ffcc00" opacity="0.7" />
  
  <!-- Building 2 -->
  <rect x="65" y="90" width="6" height="9" fill="#ffcc00" opacity="0.7" />
  <rect x="78" y="90" width="6" height="9" fill="#ffcc00" opacity="0.8" />
  <rect x="65" y="110" width="6" height="9" fill="#ffcc00" opacity="0.6" />
  <rect x="78" y="110" width="6" height="9" fill="#ffcc00" opacity="0.7" />
  <rect x="65" y="130" width="6" height="9" fill="#ffcc00" opacity="0.8" />
  <rect x="78" y="130" width="6" height="9" fill="#ffcc00" opacity="0.6" />
  <rect x="65" y="150" width="6" height="9" fill="#ffcc00" opacity="0.7" />
  <rect x="78" y="150" width="6" height="9" fill="#ffcc00" opacity="0.8" />
  <rect x="65" y="170" width="6" height="9" fill="#ffcc00" opacity="0.6" />
  <rect x="78" y="170" width="6" height="9" fill="#ffcc00" opacity="0.7" />
  <rect x="65" y="190" width="6" height="9" fill="#ffcc00" opacity="0.8" />
  <rect x="78" y="190" width="6" height="9" fill="#ffcc00" opacity="0.6" />
  
  <!-- Building 4 -->
  <rect x="150" y="80" width="7" height="10" fill="#ffcc00" opacity="0.8" />
  <rect x="165" y="80" width="7" height="10" fill="#ffcc00" opacity="0.7" />
  <rect x="150" y="100" width="7" height="10" fill="#ffcc00" opacity="0.6" />
  <rect x="165" y="100" width="7" height="10" fill="#ffcc00" opacity="0.8" />
  <rect x="150" y="120" width="7" height="10" fill="#ffcc00" opacity="0.7" />
  <rect x="165" y="120" width="7" height="10" fill="#ffcc00" opacity="0.6" />
  <rect x="150" y="140" width="7" height="10" fill="#ffcc00" opacity="0.8" />
  <rect x="165" y="140" width="7" height="10" fill="#ffcc00" opacity="0.7" />
  <rect x="150" y="160" width="7" height="10" fill="#ffcc00" opacity="0.6" />
  <rect x="165" y="160" width="7" height="10" fill="#ffcc00" opacity="0.8" />
  <rect x="150" y="180" width="7" height="10" fill="#ffcc00" opacity="0.7" />
  <rect x="165" y="180" width="7" height="10" fill="#ffcc00" opacity="0.6" />
  
  <!-- Building 6 -->
  <rect x="235" y="70" width="8" height="12" fill="#ffcc00" opacity="0.6" />
  <rect x="255" y="70" width="8" height="12" fill="#ffcc00" opacity="0.7" />
  <rect x="235" y="90" width="8" height="12" fill="#ffcc00" opacity="0.8" />
  <rect x="255" y="90" width="8" height="12" fill="#ffcc00" opacity="0.6" />
  <rect x="235" y="110" width="8" height="12" fill="#ffcc00" opacity="0.7" />
  <rect x="255" y="110" width="8" height="12" fill="#ffcc00" opacity="0.8" />
  <rect x="235" y="130" width="8" height="12" fill="#ffcc00" opacity="0.6" />
  <rect x="255" y="130" width="8" height="12" fill="#ffcc00" opacity="0.7" />
  <rect x="235" y="150" width="8" height="12" fill="#ffcc00" opacity="0.8" />
  <rect x="255" y="150" width="8" height="12" fill="#ffcc00" opacity="0.6" />
  <rect x="235" y="170" width="8" height="12" fill="#ffcc00" opacity="0.7" />
  <rect x="255" y="170" width="8" height="12" fill="#ffcc00" opacity="0.8" />
  <rect x="235" y="190" width="8" height="12" fill="#ffcc00" opacity="0.6" />
  <rect x="255" y="190" width="8" height="12" fill="#ffcc00" opacity="0.7" />
  
  <!-- Video duration -->
  <rect x="340" y="190" width="50" height="20" fill="black" opacity="0.7" rx="5" />
  <text x="350" y="205" font-family="Arial" font-size="12" fill="white">3:42</text>
  
  <!-- City setting indicator -->
  <rect x="10" y="10" width="60" height="25" fill="#2980b9" rx="5" opacity="0.9" />
  <text x="20" y="27" font-family="Arial" font-size="14" font-weight="bold" fill="white">CITY</text>
</svg>